# xmcd
#
# Track frame offsets:
#	150
#	14349
#	28407
#	48914
#	60302
#	73145
#	97473
#	123015
#	154579
#	175022
#	192875
#	212755
#	231287
#	257518
#	276311
#	290735
#	310378
#
# Disc length: 4457 seconds
#
# Revision: 1
# Processed by: cddbd v1.5.2PL0 Copyright (c) Steve Scherf et al.
# Submitted via: audiograbber 1.83.01
#
DISCID=fb116711
DTITLE=Guido Corleone - A day in the life
DYEAR=2007
DGENRE=Rap
TTITLE0=The inposition
TTITLE1=Don't even ask
TTITLE2=A day in the life
TTITLE3=Blood sample
TTITLE4=Trippin'
TTITLE5=Kill Bush suite
TTITLE6=Old  Time
TTITLE7=Lost it
TTITLE8=So Sick
TTITLE9=Jasmine
TTITLE10=Rock the spot
TTITLE11=Battleraps
TTITLE12=ICE
TTITLE13=In my dreams
TTITLE14=Labor day
TTITLE15=Tha Corleone march
TTITLE16=Vita Post Mortem
EXTD=
EXTT0=
EXTT1=
EXTT2=
EXTT3=
EXTT4=
EXTT5=
EXTT6=
EXTT7=
EXTT8=
EXTT9=
EXTT10=
EXTT11=
EXTT12=
EXTT13=
EXTT14=
EXTT15=
EXTT16=
PLAYORDER=
